<svg width="12" height="24" viewBox="0 0 12 24" xmlns="http://www.w3.org/2000/svg">
<path fill-rule="evenodd" clip-rule="evenodd" d="M0.736033 24C0.548423 24 0.359586 23.9263 0.21612 23.78C-0.0720398 23.4875 -0.0720398 23.0125 0.21612 22.72L10.3851 12.3539C10.5751 12.1589 10.5751 11.8414 10.3851 11.6464L0.21612 1.2803C-0.0720398 0.9878 -0.0720398 0.512806 0.21612 0.22031C0.503053 -0.0734365 0.969013 -0.0734365 1.25595 0.22031L11.4249 10.5864C11.7964 10.9639 12 11.4664 12 12.0002C12 12.5339 11.7964 13.0364 11.4249 13.4139L1.25595 23.78C1.11248 23.9263 0.923643 24 0.736033 24Z"/>
</svg> 