<svg width="137" height="66" viewBox="0 0 137 66" fill="none" xmlns="http://www.w3.org/2000/svg">
<g clip-path="url(#clip0)">
<path d="M20.3925 21.3311C20.0593 20.8851 19.4256 20.8182 18.9911 21.1339L7.78397 29.6277L7.84739 25.8582C7.85189 25.3038 7.41751 24.8513 6.86309 24.8468C6.31678 24.8376 5.85615 25.2766 5.84696 25.8229L5.74737 31.6475C5.73993 31.8033 5.78243 31.9519 5.84117 32.0911C5.88459 32.185 5.93956 32.2615 6.00264 32.3333C6.02481 32.3529 6.03887 32.3773 6.05635 32.3888C6.06104 32.3969 6.07384 32.4004 6.07384 32.4004C6.09132 32.4119 6.10069 32.4282 6.11818 32.4397C6.12286 32.4478 6.13566 32.4512 6.14035 32.4594C6.15783 32.4709 6.17532 32.4824 6.1928 32.494C6.19749 32.5021 6.21029 32.5055 6.21498 32.5137C6.23246 32.5252 6.24995 32.5367 6.26743 32.5483C6.27212 32.5564 6.28023 32.5517 6.28492 32.5598C6.3024 32.5714 6.328 32.5782 6.3536 32.5851C6.3536 32.5851 6.3536 32.5851 6.3664 32.5885C6.39669 32.6035 6.43509 32.6138 6.47349 32.6241L11.9392 34.0886C12.208 34.1606 12.474 34.1153 12.7012 33.9841C12.9284 33.8529 13.1007 33.6453 13.1727 33.3765C13.3167 32.8388 13.0028 32.2951 12.4652 32.1511L8.97543 31.2229L20.1954 22.7325C20.6332 22.404 20.7211 21.769 20.3925 21.3311Z" fill="white" stroke="white" stroke-width="0.8"/>
<path d="M43.1376 4.74813C43.0873 4.67978 43.0336 4.62423 42.9589 4.56993L42.9542 4.56182C42.9368 4.55027 42.9146 4.53061 42.8971 4.51907C42.8843 4.51564 42.8796 4.50753 42.8668 4.5041C42.8493 4.49255 42.8365 4.48912 42.8191 4.47758C42.7666 4.44294 42.7107 4.42111 42.6548 4.39927L42.642 4.39584C42.6245 4.3843 42.6036 4.38555 42.5861 4.37401L37.1204 2.90948C36.5828 2.76543 36.0391 3.07933 35.8951 3.61694C35.751 4.15455 36.0649 4.69826 36.6025 4.84231L40.0714 5.77179L28.0088 14.7703C27.5628 15.1036 27.4784 15.7257 27.8069 16.1636C28.1086 16.5737 28.6693 16.6828 29.1075 16.4298C29.14 16.4111 29.1806 16.3876 29.2083 16.3608L41.2872 7.35288L41.225 11.1433C41.2205 11.6977 41.6549 12.1503 42.2093 12.1548C42.3941 12.1563 42.5718 12.1078 42.7259 12.0188C43.0181 11.8501 43.2178 11.5401 43.2208 11.1705L43.3194 5.40051C43.3487 5.18885 43.2884 4.95318 43.1376 4.74813Z" fill="white" stroke="white" stroke-width="0.8"/>
<path d="M49.6908 32.5158C49.0461 32.3362 48.3905 32.3252 47.7659 32.4802C47.9982 30.6149 46.8279 28.8128 44.9462 28.3086C44.3143 28.1324 43.6553 28.1342 43.0307 28.2892C43.263 26.4239 42.0927 24.6218 40.2111 24.1176C39.5839 23.9495 38.9411 23.9419 38.3327 24.0876L39.6292 19.2491C40.1745 17.2139 38.9657 15.1202 36.9177 14.5714C34.8825 14.0261 32.7888 15.2349 32.2435 17.2701L27.268 35.8642L22.1386 29.5097C20.7791 27.7735 18.3153 27.2916 16.4001 28.3973C14.9719 29.2219 14.478 31.0652 15.3026 32.4934L24.7292 48.8209C26.2004 51.369 28.5679 53.1832 31.4095 53.9446L35.7023 55.1017C38.5311 55.8597 41.4967 55.4676 44.0367 54.0011C46.4063 52.633 48.1806 50.4401 49.0104 47.8294L52.4022 37.1935C52.9476 35.1582 51.7388 33.0646 49.6908 32.5158ZM50.4831 36.6244L47.1016 47.2219C46.4196 49.3577 44.9735 51.1447 43.034 52.2645C40.9566 53.4639 38.5323 53.7816 36.2155 53.1608L31.9227 52.0037C29.6059 51.3829 27.6653 49.8957 26.4612 47.8101L17.0392 31.4908C16.7628 31.012 16.9274 30.3976 17.4062 30.1212C18.4611 29.5121 19.8164 29.7792 20.5796 30.7451L26.9561 38.6411C27.1922 38.9376 27.5694 39.0661 27.9387 38.9935C28.3079 38.921 28.5972 38.6349 28.7014 38.2718L34.1925 17.7787C34.4532 16.8058 35.4513 16.2296 36.437 16.4937C37.4098 16.7543 37.9861 17.7525 37.7254 18.7253L34.0495 32.3925C33.9055 32.9301 34.2194 33.4738 34.757 33.6179C35.2946 33.7619 35.8383 33.448 35.9824 32.9104L37.4778 27.3295C37.7282 26.3951 38.7541 25.792 39.7222 26.0445C40.695 26.3052 41.2713 27.3033 41.0106 28.2761L39.6958 33.1577L39.5106 33.8489C39.3665 34.3865 39.6804 34.9302 40.218 35.0743C40.7556 35.2183 41.2993 34.9044 41.4434 34.3668L41.6286 33.6756L42.2048 31.5252C42.4552 30.5908 43.4811 29.9876 44.4492 30.2402C45.4221 30.5008 45.9983 31.499 45.7377 32.4718L45.1534 34.6269L44.9716 35.3053L44.9681 35.3181C44.8241 35.8557 45.138 36.3995 45.6756 36.5435C46.2132 36.6876 46.7569 36.3736 46.901 35.836L46.9318 35.7208C47.1903 34.7817 48.2081 34.1833 49.1763 34.4358C50.1491 34.6965 50.7254 35.6946 50.4831 36.6244Z" fill="white" stroke="white" stroke-width="0.8"/>
</g>
<path d="M70.0327 26.4967C69.5527 26.9767 68.8807 27.2647 68.1127 27.2647C66.6407 27.2647 65.4247 26.0487 65.4247 24.5767C65.4247 22.8487 65.4247 20.4807 65.4247 18.1767V18.1127C68.3367 18.1127 68.3367 18.1127 70.4487 18.1127V14.4327C68.5287 14.4327 67.2807 14.4327 65.4247 14.4327C65.4247 12.8007 65.4247 11.2007 65.4247 9.88867H61.7447C61.7447 16.5767 61.7447 20.5447 61.7447 24.6087C61.7447 28.1287 64.5927 30.9767 68.1127 30.9767C69.8727 30.9767 71.4727 30.2407 72.6247 29.0887L70.0327 26.4967ZM73.7447 24.5767C73.7447 28.0967 76.5927 30.9767 80.1127 30.9767C81.8727 30.9767 83.5047 30.2407 84.6567 29.0567C85.8087 30.2407 87.4407 30.9767 89.2007 30.9767C92.7207 30.9767 95.6007 28.1287 95.6007 24.6087C95.6007 21.7287 95.6007 19.2007 95.6007 14.4327H91.9207C91.9207 17.3767 91.9207 21.8247 91.9207 24.5767C91.9207 26.0807 90.7047 27.2967 89.2327 27.2967C87.7287 27.2967 86.5127 26.0807 86.5127 24.5767V14.4327H82.8327V24.6087C82.8007 26.0807 81.5847 27.2647 80.1127 27.2647C78.6407 27.2647 77.4247 26.0807 77.4247 24.6087C77.3927 22.0167 77.4247 17.1847 77.4247 14.4327H73.7447C73.7447 18.8487 73.7447 21.8887 73.7447 24.5767ZM105.878 14.2407C101.238 14.2407 97.5259 17.9847 97.5259 22.5927C97.5259 27.2327 101.238 30.9767 105.878 30.9767C110.486 30.9767 114.23 27.2327 114.23 22.5927C114.23 17.9847 110.486 14.2407 105.878 14.2407ZM105.878 27.1687C103.382 27.1687 101.334 25.1207 101.334 22.6247C101.334 20.1287 103.382 18.0807 105.878 18.0807C108.374 18.0807 110.422 20.1287 110.422 22.6247C110.422 25.1207 108.374 27.1687 105.878 27.1687ZM70.0327 49.4967C69.5527 49.9767 68.8807 50.2647 68.1127 50.2647C66.6407 50.2647 65.4247 49.0487 65.4247 47.5767C65.4247 45.8487 65.4247 43.4807 65.4247 41.1767V41.1127C68.3367 41.1127 68.3367 41.1127 70.4487 41.1127V37.4327C68.5287 37.4327 67.2807 37.4327 65.4247 37.4327C65.4247 35.8007 65.4247 34.2007 65.4247 32.8887H61.7447C61.7447 39.5767 61.7447 43.5447 61.7447 47.6087C61.7447 51.1287 64.5927 53.9767 68.1127 53.9767C69.8727 53.9767 71.4727 53.2407 72.6247 52.0887L70.0327 49.4967ZM81.3154 37.2407C76.6754 37.2407 72.9634 40.9847 72.9634 45.5927C72.9634 50.2327 76.6754 53.9767 81.3154 53.9767C85.9234 53.9767 89.6674 50.2327 89.6674 45.5927C89.6674 40.9847 85.9234 37.2407 81.3154 37.2407ZM81.3154 50.1687C78.8194 50.1687 76.7714 48.1207 76.7714 45.6247C76.7714 43.1287 78.8194 41.0807 81.3154 41.0807C83.8114 41.0807 85.8594 43.1287 85.8594 45.6247C85.8594 48.1207 83.8114 50.1687 81.3154 50.1687ZM91.5884 47.5767C91.5884 51.0967 94.4364 53.9767 97.9564 53.9767C101.476 53.9767 104.324 51.1287 104.356 47.6087V37.4327H100.676C100.676 40.4087 100.676 44.7927 100.676 47.5767C100.676 49.0487 99.4604 50.2647 97.9564 50.2647C96.4844 50.2647 95.2684 49.0487 95.2684 47.5767C95.2684 44.9847 95.2684 40.1847 95.2684 37.4327H91.5884V47.5767ZM117.828 48.8247C116.996 49.6567 115.876 50.1367 114.628 50.1367C112.132 50.1367 110.084 48.1207 110.084 45.6247C110.084 43.1287 112.132 41.0807 114.628 41.0807C115.876 41.0807 116.996 41.5927 117.828 42.3927L120.516 39.7047C119.012 38.2007 116.932 37.2407 114.628 37.2407C109.988 37.2407 106.244 40.9847 106.244 45.5927C106.244 50.2327 109.988 53.9767 114.628 53.9767C116.932 53.9767 119.012 53.0167 120.516 51.5127L117.828 48.8247ZM135.2 43.6087C135.2 40.0887 132.352 37.2407 128.832 37.2407C127.84 37.2407 126.912 37.4647 126.112 37.8487C126.112 35.9607 126.112 34.3607 126.112 32.8567H122.432V53.8167H126.112C126.112 50.9687 126.112 47.2247 126.112 43.6407C126.112 42.1367 127.328 40.9527 128.8 40.9527C130.304 40.9527 131.52 42.1367 131.52 43.6407C131.52 46.2327 131.52 51.0327 131.52 53.7847H135.2C135.2 49.3367 135.2 46.3287 135.2 43.6087Z" fill="#F5F5F5"/>
<defs>
<clipPath id="clip0">
<rect y="24" width="48" height="48" transform="rotate(-30 0 24)" fill="white"/>
</clipPath>
</defs>
</svg>
